<svg width="211" height="58" viewBox="0 0 211 58" fill="none" xmlns="http://www.w3.org/2000/svg">
<g filter="url(#filter0_d)">
<path d="M76.6172 14.4609V18.7812V18.9297C76.6172 19.6276 76.5703 20.1328 76.4766 20.4453C76.388 20.7578 76.237 21.0365 76.0234 21.2812C75.7474 21.599 75.3646 21.8385 74.875 22C74.3854 22.1615 73.7969 22.2422 73.1094 22.2422C72.625 22.2422 72.1562 22.1953 71.7031 22.1016C71.2552 22.0078 70.8229 21.8672 70.4062 21.6797C70.1771 21.5755 70.026 21.4401 69.9531 21.2734C69.8854 21.1068 69.8516 20.8359 69.8516 20.4609V18.8516C69.8516 18.4036 69.9167 18.0911 70.0469 17.9141C70.1771 17.737 70.4036 17.6484 70.7266 17.6484C71.1901 17.6484 71.4453 17.9896 71.4922 18.6719C71.4974 18.7917 71.5052 18.8828 71.5156 18.9453C71.5781 19.5495 71.7188 19.9635 71.9375 20.1875C72.1562 20.4062 72.5052 20.5156 72.9844 20.5156C73.5781 20.5156 73.9948 20.3594 74.2344 20.0469C74.4792 19.7292 74.6016 19.1536 74.6016 18.3203V14.4609H73.2891C72.9349 14.4609 72.6797 14.3932 72.5234 14.2578C72.3724 14.1224 72.2969 13.9036 72.2969 13.6016C72.2969 13.2943 72.3698 13.0755 72.5156 12.9453C72.6667 12.8151 72.9245 12.75 73.2891 12.75H77.2734C77.638 12.75 77.8932 12.8151 78.0391 12.9453C78.1901 13.0755 78.2656 13.2943 78.2656 13.6016C78.2656 13.9036 78.1875 14.1224 78.0312 14.2578C77.8802 14.3932 77.6276 14.4609 77.2734 14.4609H76.6172ZM87.8737 20.2891H87.9987C88.28 20.2891 88.4935 20.3646 88.6394 20.5156C88.7904 20.6615 88.8659 20.8724 88.8659 21.1484C88.8659 21.4505 88.7878 21.6693 88.6316 21.8047C88.4805 21.9349 88.2279 22 87.8737 22H87.1394C86.879 22 86.6836 21.9505 86.5534 21.8516C86.4284 21.7526 86.3243 21.5729 86.2409 21.3125C85.8086 21.599 85.3503 21.8177 84.8659 21.9688C84.3816 22.1198 83.892 22.1953 83.3972 22.1953C82.5586 22.1953 81.8998 21.987 81.4206 21.5703C80.9415 21.1536 80.7019 20.5833 80.7019 19.8594C80.7019 19.0781 81.0118 18.4714 81.6316 18.0391C82.2514 17.6068 83.1211 17.3906 84.2409 17.3906C84.4909 17.3906 84.7566 17.4036 85.0378 17.4297C85.3191 17.4557 85.6342 17.4974 85.9831 17.5547V17.4062C85.9831 16.9375 85.8685 16.5807 85.6394 16.3359C85.4154 16.0911 85.0821 15.9688 84.6394 15.9688C84.2956 15.9688 83.8555 16.0964 83.3191 16.3516C82.7878 16.6068 82.3972 16.7344 82.1472 16.7344C81.9024 16.7344 81.7045 16.6641 81.5534 16.5234C81.4024 16.3776 81.3269 16.1875 81.3269 15.9531C81.3269 15.5312 81.6342 15.1979 82.2487 14.9531C82.8685 14.7031 83.7097 14.5781 84.7722 14.5781C85.8816 14.5781 86.6758 14.7917 87.155 15.2188C87.6342 15.6458 87.8737 16.3698 87.8737 17.3906V20.2891ZM85.9831 18.7812C85.7227 18.724 85.4831 18.6823 85.2644 18.6562C85.0456 18.625 84.8425 18.6094 84.655 18.6094C84.0821 18.6094 83.6316 18.7057 83.3034 18.8984C82.9805 19.0911 82.8191 19.3568 82.8191 19.6953C82.8191 19.9974 82.9232 20.2292 83.1316 20.3906C83.3399 20.5469 83.6394 20.625 84.03 20.625C84.3894 20.625 84.7279 20.5729 85.0456 20.4688C85.3633 20.3646 85.6758 20.2031 85.9831 19.9844V18.7812ZM93.4506 18.8516C93.586 19.4297 93.8465 19.862 94.2319 20.1484C94.6225 20.4349 95.1407 20.5781 95.7866 20.5781C96.4324 20.5781 97.0704 20.4219 97.7006 20.1094C98.3308 19.7917 98.711 19.6328 98.8412 19.6328C99.034 19.6328 99.1902 19.7057 99.31 19.8516C99.435 19.9922 99.4975 20.1745 99.4975 20.3984C99.4975 20.888 99.1355 21.3099 98.4116 21.6641C97.6876 22.0182 96.7918 22.1953 95.7241 22.1953C94.4636 22.1953 93.4376 21.8411 92.6459 21.1328C91.8595 20.4245 91.4662 19.513 91.4662 18.3984C91.4662 17.2891 91.8595 16.3802 92.6459 15.6719C93.4376 14.9635 94.4636 14.6094 95.7241 14.6094C96.8491 14.6094 97.7814 14.9427 98.5209 15.6094C99.2605 16.2708 99.6303 17.0833 99.6303 18.0469C99.6303 18.3542 99.5548 18.5651 99.4037 18.6797C99.2579 18.7943 98.9532 18.8516 98.4897 18.8516H93.4506ZM97.6616 17.6328C97.573 17.1484 97.3439 16.7734 96.9741 16.5078C96.6095 16.2422 96.1329 16.1094 95.5444 16.1094C94.9767 16.1094 94.5183 16.237 94.1694 16.4922C93.8256 16.7422 93.586 17.1224 93.4506 17.6328H97.6616ZM105.207 15.5703C105.389 15.2526 105.647 15.0104 105.981 14.8438C106.314 14.6771 106.712 14.5938 107.176 14.5938C107.999 14.5938 108.632 14.8333 109.074 15.3125C109.522 15.7917 109.746 16.4792 109.746 17.375V20.2891H109.879C110.155 20.2891 110.363 20.362 110.504 20.5078C110.65 20.6484 110.723 20.8568 110.723 21.1328C110.723 21.4401 110.647 21.6615 110.496 21.7969C110.35 21.9323 110.1 22 109.746 22H107.809C107.46 22 107.21 21.9323 107.059 21.7969C106.913 21.6615 106.84 21.4401 106.84 21.1328C106.84 20.8516 106.91 20.6406 107.051 20.5C107.192 20.3594 107.403 20.2891 107.684 20.2891H107.809V18.0156C107.809 17.349 107.725 16.888 107.559 16.6328C107.397 16.3724 107.119 16.2422 106.723 16.2422C106.306 16.2422 105.949 16.4115 105.653 16.75C105.356 17.0833 105.207 17.5052 105.207 18.0156V20.2891H105.332C105.613 20.2891 105.824 20.362 105.965 20.5078C106.111 20.6484 106.184 20.8568 106.184 21.1328C106.184 21.4401 106.108 21.6615 105.957 21.7969C105.806 21.9323 105.556 22 105.207 22H103.27C102.91 22 102.658 21.9349 102.512 21.8047C102.366 21.6693 102.293 21.4453 102.293 21.1328C102.293 20.8568 102.363 20.6484 102.504 20.5078C102.65 20.362 102.861 20.2891 103.137 20.2891H103.27V13.5078H103.137C102.861 13.5078 102.647 13.4349 102.496 13.2891C102.35 13.138 102.278 12.9219 102.278 12.6406C102.278 12.3333 102.353 12.112 102.504 11.9766C102.655 11.8411 102.91 11.7734 103.27 11.7734H104.738C104.916 11.7734 105.038 11.8099 105.106 11.8828C105.173 11.9557 105.207 12.0911 105.207 12.2891V15.5703ZM115.979 16.4922L117.386 19.8203L118.862 16.4922H118.737C118.456 16.4922 118.24 16.4193 118.089 16.2734C117.943 16.1276 117.87 15.9141 117.87 15.6328C117.87 15.3255 117.943 15.1068 118.089 14.9766C118.24 14.8464 118.498 14.7812 118.862 14.7812H120.698C121.063 14.7812 121.318 14.849 121.464 14.9844C121.615 15.1146 121.69 15.3307 121.69 15.6328C121.69 15.9141 121.617 16.1276 121.472 16.2734C121.326 16.4193 121.112 16.4922 120.831 16.4922H120.698L117.487 23.3906H117.839C118.193 23.3906 118.446 23.4583 118.597 23.5938C118.753 23.7292 118.831 23.9505 118.831 24.2578C118.831 24.5599 118.753 24.7786 118.597 24.9141C118.446 25.0495 118.193 25.1172 117.839 25.1172H114.417C114.057 25.1172 113.802 25.0495 113.651 24.9141C113.5 24.7839 113.425 24.5651 113.425 24.2578C113.425 23.9505 113.5 23.7292 113.651 23.5938C113.802 23.4583 114.057 23.3906 114.417 23.3906H115.628L116.362 21.8203L113.995 16.4922H113.87C113.589 16.4922 113.373 16.4193 113.222 16.2734C113.076 16.1276 113.003 15.9141 113.003 15.6328C113.003 15.3255 113.078 15.1068 113.229 14.9766C113.38 14.8464 113.636 14.7812 113.995 14.7812H115.979C116.339 14.7812 116.594 14.849 116.745 14.9844C116.896 15.1146 116.972 15.3307 116.972 15.6328C116.972 15.9141 116.896 16.1276 116.745 16.2734C116.599 16.4193 116.388 16.4922 116.112 16.4922H115.979ZM129.478 16.4922H129.353C129.072 16.4922 128.858 16.4193 128.713 16.2734C128.572 16.1276 128.502 15.9141 128.502 15.6328C128.502 15.3255 128.574 15.1068 128.72 14.9766C128.866 14.8464 129.119 14.7812 129.478 14.7812H130.955C131.095 14.7812 131.205 14.8125 131.283 14.875C131.361 14.9323 131.4 15.013 131.4 15.1172V20.2891H131.525C131.806 20.2891 132.02 20.362 132.166 20.5078C132.317 20.6536 132.392 20.862 132.392 21.1328C132.392 21.4453 132.317 21.6693 132.166 21.8047C132.015 21.9349 131.759 22 131.4 22H130.088C129.942 22 129.827 21.9688 129.744 21.9062C129.666 21.8438 129.627 21.7578 129.627 21.6484V21.0547C129.377 21.4297 129.069 21.7109 128.705 21.8984C128.345 22.0859 127.921 22.1797 127.431 22.1797C126.593 22.1797 125.97 21.9271 125.564 21.4219C125.158 20.9167 124.955 20.1432 124.955 19.1016V16.4922H124.822C124.541 16.4922 124.327 16.4193 124.181 16.2734C124.035 16.1276 123.963 15.9141 123.963 15.6328C123.963 15.3255 124.035 15.1068 124.181 14.9766C124.332 14.8464 124.59 14.7812 124.955 14.7812H126.423C126.564 14.7812 126.671 14.8125 126.744 14.875C126.817 14.9323 126.853 15.013 126.853 15.1172V18.75C126.853 19.3906 126.942 19.8411 127.119 20.1016C127.296 20.362 127.588 20.4922 127.994 20.4922C128.426 20.4922 128.78 20.3333 129.056 20.0156C129.338 19.6927 129.478 19.2708 129.478 18.75V16.4922ZM142.414 20.2734H142.516C142.808 20.2734 143.026 20.3464 143.172 20.4922C143.318 20.6328 143.391 20.8464 143.391 21.1328C143.391 21.4401 143.315 21.6615 143.164 21.7969C143.019 21.9323 142.769 22 142.414 22H140.493C140.144 22 139.891 21.9323 139.735 21.7969C139.584 21.6615 139.508 21.4401 139.508 21.1328C139.508 20.8464 139.581 20.6328 139.727 20.4922C139.878 20.3464 140.102 20.2734 140.399 20.2734H140.493V18.0156C140.493 17.3906 140.404 16.9479 140.227 16.6875C140.055 16.4219 139.766 16.2891 139.36 16.2891C138.927 16.2891 138.573 16.4479 138.297 16.7656C138.026 17.0781 137.891 17.4948 137.891 18.0156V20.2734H137.985C138.282 20.2734 138.503 20.3464 138.649 20.4922C138.795 20.6328 138.868 20.8464 138.868 21.1328C138.868 21.4401 138.792 21.6615 138.641 21.7969C138.49 21.9323 138.24 22 137.891 22H135.953C135.604 22 135.354 21.9323 135.203 21.7969C135.052 21.6615 134.977 21.4401 134.977 21.1328C134.977 20.8464 135.05 20.6328 135.196 20.4922C135.341 20.3464 135.563 20.2734 135.86 20.2734H135.953V16.4922H135.821C135.539 16.4922 135.326 16.4219 135.18 16.2812C135.034 16.1354 134.961 15.9245 134.961 15.6484C134.961 15.3411 135.037 15.1198 135.188 14.9844C135.339 14.849 135.594 14.7812 135.953 14.7812H137.282C137.427 14.7812 137.537 14.8099 137.61 14.8672C137.688 14.9245 137.727 15.0078 137.727 15.1172V15.7266C137.966 15.3516 138.271 15.0703 138.641 14.8828C139.016 14.6901 139.448 14.5938 139.938 14.5938C140.771 14.5938 141.391 14.8464 141.797 15.3516C142.209 15.8568 142.414 16.6276 142.414 17.6641V20.2734ZM149.687 16.2422C149.176 16.2422 148.752 16.4271 148.413 16.7969C148.08 17.1667 147.913 17.638 147.913 18.2109C147.913 18.7734 148.08 19.2396 148.413 19.6094C148.752 19.974 149.176 20.1562 149.687 20.1562C150.202 20.1562 150.627 19.974 150.96 19.6094C151.299 19.2396 151.468 18.7734 151.468 18.2109C151.468 17.638 151.299 17.1667 150.96 16.7969C150.627 16.4271 150.202 16.2422 149.687 16.2422ZM151.624 15.5078V15.1016C151.624 14.9974 151.661 14.9193 151.733 14.8672C151.812 14.8099 151.926 14.7812 152.077 14.7812H153.351C153.71 14.7812 153.963 14.849 154.108 14.9844C154.254 15.1146 154.327 15.3307 154.327 15.6328C154.327 15.9141 154.254 16.1276 154.108 16.2734C153.968 16.4193 153.759 16.4922 153.483 16.4922H153.351V21.875C153.351 23.0156 153.041 23.8438 152.421 24.3594C151.801 24.875 150.806 25.1328 149.437 25.1328C148.588 25.1328 147.963 25.0495 147.562 24.8828C147.166 24.7161 146.968 24.4531 146.968 24.0938C146.968 23.8438 147.049 23.6406 147.21 23.4844C147.371 23.3281 147.585 23.25 147.851 23.25C147.918 23.25 148.142 23.2734 148.522 23.3203C148.903 23.3672 149.254 23.3906 149.577 23.3906C150.322 23.3906 150.835 23.25 151.116 22.9688C151.403 22.6875 151.546 22.1823 151.546 21.4531V21.1016C151.176 21.3151 150.809 21.474 150.444 21.5781C150.085 21.6771 149.71 21.7266 149.319 21.7266C148.272 21.7266 147.416 21.401 146.749 20.75C146.088 20.0938 145.757 19.2526 145.757 18.2266C145.757 17.1693 146.103 16.2995 146.796 15.6172C147.494 14.9349 148.384 14.5938 149.468 14.5938C149.937 14.5938 150.348 14.6693 150.702 14.8203C151.056 14.9661 151.364 15.1953 151.624 15.5078ZM170.653 14.4609L171.872 17.0078L173.036 14.4609H173.004C172.77 14.4609 172.59 14.388 172.465 14.2422C172.346 14.0964 172.286 13.8828 172.286 13.6016C172.286 13.2891 172.348 13.0677 172.473 12.9375C172.603 12.8021 172.822 12.7344 173.129 12.7344H174.911C175.26 12.7344 175.507 12.8021 175.653 12.9375C175.799 13.0677 175.872 13.2891 175.872 13.6016C175.872 13.8828 175.799 14.0964 175.653 14.2422C175.512 14.388 175.306 14.4609 175.036 14.4609H174.911L172.809 18.3672V20.2891H173.832C174.187 20.2891 174.437 20.3568 174.582 20.4922C174.734 20.6224 174.809 20.8359 174.809 21.1328C174.809 21.4349 174.731 21.6562 174.575 21.7969C174.418 21.9323 174.166 22 173.817 22H169.77C169.421 22 169.171 21.9323 169.02 21.7969C168.869 21.6615 168.793 21.4401 168.793 21.1328C168.793 20.8255 168.866 20.6094 169.012 20.4844C169.158 20.3542 169.411 20.2891 169.77 20.2891H170.793V18.5938L168.575 14.4609H168.442C168.171 14.4609 167.965 14.388 167.825 14.2422C167.684 14.0964 167.614 13.8828 167.614 13.6016C167.614 13.2891 167.687 13.0677 167.832 12.9375C167.978 12.8021 168.226 12.7344 168.575 12.7344H170.622C170.929 12.7344 171.148 12.8021 171.278 12.9375C171.413 13.0729 171.481 13.2943 171.481 13.6016C171.481 13.8776 171.418 14.0911 171.293 14.2422C171.174 14.388 170.997 14.4609 170.762 14.4609H170.653ZM182.691 16.2578C182.081 16.2578 181.579 16.4583 181.183 16.8594C180.792 17.2552 180.597 17.763 180.597 18.3828C180.597 19.0078 180.792 19.526 181.183 19.9375C181.579 20.3438 182.081 20.5469 182.691 20.5469C183.3 20.5469 183.803 20.3438 184.198 19.9375C184.594 19.526 184.792 19.0078 184.792 18.3828C184.792 17.763 184.594 17.2552 184.198 16.8594C183.808 16.4583 183.305 16.2578 182.691 16.2578ZM182.691 14.6094C183.956 14.6094 184.982 14.9635 185.769 15.6719C186.555 16.3802 186.948 17.2891 186.948 18.3984C186.948 19.513 186.555 20.4245 185.769 21.1328C184.982 21.8411 183.956 22.1953 182.691 22.1953C181.43 22.1953 180.407 21.8411 179.62 21.1328C178.834 20.4245 178.441 19.513 178.441 18.3984C178.441 17.2891 178.834 16.3802 179.62 15.6719C180.412 14.9635 181.435 14.6094 182.691 14.6094ZM193.58 16.2578C192.971 16.2578 192.468 16.4583 192.072 16.8594C191.682 17.2552 191.486 17.763 191.486 18.3828C191.486 19.0078 191.682 19.526 192.072 19.9375C192.468 20.3438 192.971 20.5469 193.58 20.5469C194.189 20.5469 194.692 20.3438 195.088 19.9375C195.484 19.526 195.682 19.0078 195.682 18.3828C195.682 17.763 195.484 17.2552 195.088 16.8594C194.697 16.4583 194.195 16.2578 193.58 16.2578ZM193.58 14.6094C194.846 14.6094 195.872 14.9635 196.658 15.6719C197.445 16.3802 197.838 17.2891 197.838 18.3984C197.838 19.513 197.445 20.4245 196.658 21.1328C195.872 21.8411 194.846 22.1953 193.58 22.1953C192.32 22.1953 191.296 21.8411 190.51 21.1328C189.723 20.4245 189.33 19.513 189.33 18.3984C189.33 17.2891 189.723 16.3802 190.51 15.6719C191.301 14.9635 192.325 14.6094 193.58 14.6094ZM204.469 19.1719C204.959 19.1719 205.352 19.3073 205.649 19.5781C205.951 19.849 206.102 20.2031 206.102 20.6406C206.102 21.0729 205.951 21.4271 205.649 21.7031C205.352 21.974 204.959 22.1094 204.469 22.1094C203.99 22.1094 203.6 21.974 203.298 21.7031C202.995 21.4271 202.844 21.0729 202.844 20.6406C202.844 20.2083 202.995 19.8568 203.298 19.5859C203.6 19.3099 203.99 19.1719 204.469 19.1719Z" fill="white"/>
</g>
<g filter="url(#filter1_d)">
<path d="M71.0859 38.5L72.0938 34.9961C72.1289 34.8711 72.168 34.793 72.2109 34.7617C72.2578 34.7266 72.3398 34.709 72.457 34.709H72.7207C72.834 34.709 72.9141 34.7266 72.9609 34.7617C73.0117 34.7969 73.0547 34.8672 73.0898 34.9727L74.2324 38.5L74.8066 33.8418H73.8867C73.707 33.8418 73.5742 33.8105 73.4883 33.748C73.4062 33.6855 73.3652 33.5859 73.3652 33.4492C73.3652 33.3008 73.4043 33.1973 73.4824 33.1387C73.5645 33.0801 73.7148 33.0508 73.9336 33.0508H75.8262C75.9121 33.0508 75.9883 33.0898 76.0547 33.168C76.1211 33.2422 76.1543 33.3359 76.1543 33.4492C76.1543 33.582 76.1172 33.6816 76.043 33.748C75.9688 33.8105 75.8574 33.8418 75.709 33.8418H75.6387L74.8066 39.7012C74.7949 39.8223 74.7715 39.9023 74.7363 39.9414C74.7051 39.9805 74.6523 40 74.5781 40H74.1621C74.0723 40 74.0039 39.9824 73.957 39.9473C73.9102 39.9121 73.8691 39.8457 73.834 39.748L72.5625 35.7168L71.4375 39.7598C71.4102 39.8574 71.375 39.9219 71.332 39.9531C71.2891 39.9844 71.2188 40 71.1211 40H70.6816C70.6035 40 70.5449 39.9824 70.5059 39.9473C70.4707 39.9082 70.4453 39.8223 70.4297 39.6895L69.5391 33.8418H69.4688C69.3164 33.8418 69.2012 33.8086 69.123 33.7422C69.0488 33.6758 69.0117 33.5781 69.0117 33.4492C69.0117 33.332 69.043 33.2363 69.1055 33.1621C69.168 33.0879 69.2441 33.0508 69.334 33.0508H71.2324C71.4473 33.0508 71.5938 33.0801 71.6719 33.1387C71.7539 33.1973 71.7949 33.3008 71.7949 33.4492C71.7949 33.5859 71.752 33.6855 71.666 33.748C71.584 33.8105 71.4551 33.8418 71.2793 33.8418H70.4531L71.0859 38.5ZM78.7842 37.5508C78.8155 38.1133 79.0049 38.5488 79.3526 38.8574C79.7041 39.1621 80.1827 39.3145 80.7881 39.3145C81.2452 39.3145 81.7432 39.1934 82.2823 38.9512C82.8213 38.7051 83.1475 38.582 83.2608 38.582C83.378 38.582 83.4756 38.6191 83.5538 38.6934C83.6319 38.7676 83.6709 38.8594 83.6709 38.9688C83.6709 39.082 83.6299 39.1855 83.5479 39.2793C83.4659 39.373 83.335 39.4648 83.1553 39.5547C82.7647 39.7461 82.3604 39.8926 81.9424 39.9941C81.5284 40.0957 81.1163 40.1465 80.7061 40.1465C79.8155 40.1465 79.1026 39.8906 78.5674 39.3789C78.0323 38.8633 77.7647 38.1816 77.7647 37.334C77.7647 36.4707 78.0479 35.7715 78.6143 35.2363C79.1807 34.7012 79.919 34.4336 80.8291 34.4336C81.6534 34.4336 82.337 34.6836 82.8799 35.1836C83.4229 35.6836 83.6944 36.2891 83.6944 37C83.6944 37.2188 83.6475 37.3652 83.5538 37.4395C83.4639 37.5137 83.2159 37.5508 82.8096 37.5508H82.7217H78.7842ZM78.8135 36.7832H82.628C82.5694 36.3184 82.3741 35.9453 82.042 35.6641C81.7139 35.3789 81.3096 35.2363 80.8291 35.2363C80.3096 35.2363 79.8721 35.373 79.5166 35.6465C79.1612 35.9199 78.9268 36.2988 78.8135 36.7832ZM89.2481 39.1855C89.7989 39.1855 90.2462 39.0117 90.5899 38.6641C90.9337 38.3164 91.1055 37.8652 91.1055 37.3105C91.1055 36.7676 90.9298 36.3203 90.5782 35.9688C90.2305 35.6172 89.7872 35.4414 89.2481 35.4414C88.7052 35.4414 88.2598 35.6172 87.9122 35.9688C87.5684 36.3164 87.3966 36.7637 87.3966 37.3105C87.3966 37.8574 87.5684 38.3066 87.9122 38.6582C88.2598 39.0098 88.7052 39.1855 89.2481 39.1855ZM87.42 35.4297C87.6388 35.1562 87.9122 34.9473 88.2403 34.8027C88.5684 34.6582 88.9395 34.5859 89.3536 34.5859C90.1388 34.5859 90.793 34.8516 91.3165 35.3828C91.8399 35.9102 92.1016 36.5645 92.1016 37.3457C92.1016 38.1152 91.8321 38.7676 91.293 39.3027C90.7579 39.8379 90.1036 40.1055 89.3302 40.1055C88.92 40.1055 88.5626 40.0332 88.2579 39.8887C87.9532 39.7441 87.7032 39.5254 87.5079 39.2324V39.7012C87.5079 39.8066 87.4884 39.8828 87.4493 39.9297C87.4141 39.9766 87.3536 40 87.2677 40H86.1954C86.043 40 85.9298 39.9648 85.8555 39.8945C85.7813 39.8242 85.7442 39.7188 85.7442 39.5781C85.7442 39.4219 85.7891 39.3164 85.879 39.2617C85.9688 39.2031 86.1466 39.1738 86.4122 39.1738H86.5352V33.1738H86.4239C86.1583 33.1738 85.9766 33.1426 85.879 33.0801C85.7813 33.0176 85.7325 32.9082 85.7325 32.752C85.7325 32.6113 85.7716 32.5059 85.8497 32.4355C85.9278 32.3652 86.043 32.3301 86.1954 32.3301H87.086C87.2032 32.3301 87.2872 32.3496 87.338 32.3887C87.3927 32.4277 87.42 32.4883 87.42 32.5703V35.4297ZM106.262 39.4492C105.996 39.6797 105.721 39.8516 105.436 39.9648C105.154 40.0781 104.86 40.1348 104.551 40.1348C104.024 40.1348 103.586 39.957 103.238 39.6016C102.895 39.2422 102.723 38.791 102.723 38.248C102.723 37.873 102.817 37.5312 103.004 37.2227C103.192 36.9141 103.498 36.5996 103.924 36.2793C103.729 36.002 103.588 35.7559 103.502 35.541C103.416 35.3223 103.373 35.1133 103.373 34.9141C103.373 34.5 103.524 34.1504 103.824 33.8652C104.129 33.5801 104.502 33.4375 104.944 33.4375C105.092 33.4375 105.246 33.4629 105.406 33.5137C105.57 33.5645 105.768 33.6504 105.998 33.7715C106.018 33.7676 106.037 33.7656 106.057 33.7656C106.076 33.7617 106.106 33.7598 106.145 33.7598C106.27 33.7598 106.365 33.791 106.432 33.8535C106.502 33.9121 106.537 33.9961 106.537 34.1055C106.537 34.2422 106.488 34.3672 106.391 34.4805C106.293 34.5938 106.192 34.6504 106.086 34.6504C106.016 34.6504 105.86 34.5781 105.617 34.4336C105.379 34.2891 105.17 34.2168 104.99 34.2168C104.795 34.2168 104.633 34.2773 104.504 34.3984C104.375 34.5195 104.311 34.6699 104.311 34.8496C104.311 34.9746 104.344 35.1094 104.41 35.2539C104.477 35.3984 104.619 35.6172 104.838 35.9102L106.285 37.9023C106.36 37.7188 106.436 37.4785 106.514 37.1816C106.623 36.7402 106.779 36.5195 106.983 36.5195H107.346C107.432 36.5195 107.506 36.5625 107.569 36.6484C107.635 36.7344 107.668 36.8398 107.668 36.9648C107.668 37.1133 107.643 37.2168 107.592 37.2754C107.541 37.334 107.444 37.3789 107.299 37.4102C107.252 37.6055 107.192 37.8047 107.117 38.0078C107.043 38.2109 106.955 38.4199 106.854 38.6348L107.211 39.1387H107.358C107.432 39.1387 107.492 39.1738 107.539 39.2441C107.586 39.3145 107.61 39.4102 107.61 39.5312C107.61 39.6758 107.582 39.791 107.528 39.877C107.473 39.959 107.401 40 107.311 40H106.819C106.725 40 106.615 39.9121 106.49 39.7363C106.471 39.709 106.455 39.6895 106.444 39.6777L106.262 39.4492ZM105.758 38.7637L104.44 36.9883C104.209 37.1484 104.037 37.3223 103.924 37.5098C103.811 37.6973 103.754 37.9043 103.754 38.1309C103.754 38.4355 103.854 38.6934 104.053 38.9043C104.256 39.1152 104.5 39.2207 104.785 39.2207C104.957 39.2207 105.121 39.1836 105.278 39.1094C105.438 39.0352 105.598 38.9199 105.758 38.7637ZM119.069 33.8945H118.975C118.74 33.8945 118.578 33.8633 118.489 33.8008C118.403 33.7383 118.36 33.6289 118.36 33.4727C118.36 33.3281 118.397 33.2227 118.471 33.1562C118.545 33.0859 118.656 33.0508 118.805 33.0508H119.069H120.27C120.586 33.0508 120.787 33.082 120.873 33.1445C120.959 33.2031 121.002 33.3125 121.002 33.4727C121.002 33.6289 120.951 33.7383 120.85 33.8008C120.748 33.8633 120.555 33.8945 120.27 33.8945H120.018V37.1055C120.018 37.5391 120.037 37.8555 120.076 38.0547C120.119 38.25 120.188 38.4297 120.281 38.5938C120.418 38.832 120.608 39.0176 120.85 39.1504C121.096 39.2832 121.367 39.3496 121.664 39.3496C122.223 39.3496 122.629 39.1816 122.883 38.8457C123.141 38.5098 123.27 37.9668 123.27 37.2168V33.8945H122.959C122.655 33.8945 122.449 33.8652 122.344 33.8066C122.242 33.7441 122.192 33.6328 122.192 33.4727C122.192 33.3125 122.233 33.2031 122.315 33.1445C122.397 33.082 122.567 33.0508 122.824 33.0508H124.119H124.401C124.541 33.0508 124.647 33.0859 124.717 33.1562C124.791 33.2266 124.828 33.332 124.828 33.4727C124.828 33.6289 124.785 33.7383 124.699 33.8008C124.614 33.8633 124.457 33.8945 124.231 33.8945H124.149V37.3457C124.149 38.2949 123.936 39.0078 123.51 39.4844C123.088 39.957 122.451 40.1934 121.6 40.1934C120.83 40.1934 120.215 39.957 119.754 39.4844C119.297 39.0078 119.069 38.3672 119.069 37.5625V33.8945ZM127.3 33.8945C127.132 33.8867 127.011 33.8516 126.937 33.7891C126.866 33.7227 126.831 33.6172 126.831 33.4727C126.831 33.3359 126.865 33.2324 126.931 33.1621C127.001 33.0879 127.103 33.0508 127.236 33.0508H128.712C128.857 33.0508 128.966 33.0879 129.04 33.1621C129.118 33.2324 129.158 33.3359 129.158 33.4727C129.158 33.6055 129.109 33.709 129.011 33.7832C128.913 33.8574 128.779 33.8945 128.607 33.8945H128.495H128.437L129.767 35.7754L131.15 33.8945H131.091H130.968C130.781 33.8945 130.634 33.8574 130.529 33.7832C130.423 33.7051 130.37 33.6016 130.37 33.4727C130.37 33.3438 130.411 33.2422 130.493 33.168C130.575 33.0898 130.687 33.0508 130.827 33.0508H132.304C132.437 33.0508 132.536 33.0879 132.603 33.1621C132.673 33.2324 132.708 33.3359 132.708 33.4727C132.708 33.6211 132.667 33.7285 132.585 33.7949C132.507 33.8613 132.376 33.8945 132.193 33.8945L130.324 36.4258L132.363 39.1738C132.534 39.1855 132.661 39.2246 132.743 39.291C132.825 39.3574 132.866 39.4531 132.866 39.5781C132.866 39.707 132.827 39.8105 132.749 39.8887C132.671 39.9629 132.566 40 132.433 40H130.863C130.659 40 130.523 39.9688 130.452 39.9062C130.382 39.8438 130.347 39.7344 130.347 39.5781C130.347 39.4258 130.39 39.3203 130.476 39.2617C130.562 39.2031 130.73 39.1738 130.98 39.1738H131.22L129.72 37.1055L128.243 39.1738H128.507C128.777 39.1738 128.958 39.2031 129.052 39.2617C129.146 39.3203 129.193 39.4258 129.193 39.5781C129.193 39.7344 129.156 39.8438 129.081 39.9062C129.007 39.9688 128.868 40 128.665 40H127.107C126.974 40 126.868 39.9629 126.79 39.8887C126.712 39.8105 126.673 39.707 126.673 39.5781C126.673 39.4453 126.714 39.3457 126.796 39.2793C126.878 39.2129 127.009 39.1777 127.189 39.1738L129.169 36.4609L127.3 33.8945ZM144.12 37.5508C144.152 38.1133 144.341 38.5488 144.689 38.8574C145.04 39.1621 145.519 39.3145 146.124 39.3145C146.581 39.3145 147.079 39.1934 147.619 38.9512C148.158 38.7051 148.484 38.582 148.597 38.582C148.714 38.582 148.812 38.6191 148.89 38.6934C148.968 38.7676 149.007 38.8594 149.007 38.9688C149.007 39.082 148.966 39.1855 148.884 39.2793C148.802 39.373 148.671 39.4648 148.492 39.5547C148.101 39.7461 147.697 39.8926 147.279 39.9941C146.865 40.0957 146.452 40.1465 146.042 40.1465C145.152 40.1465 144.439 39.8906 143.904 39.3789C143.369 38.8633 143.101 38.1816 143.101 37.334C143.101 36.4707 143.384 35.7715 143.951 35.2363C144.517 34.7012 145.255 34.4336 146.165 34.4336C146.99 34.4336 147.673 34.6836 148.216 35.1836C148.759 35.6836 149.031 36.2891 149.031 37C149.031 37.2188 148.984 37.3652 148.89 37.4395C148.8 37.5137 148.552 37.5508 148.146 37.5508H148.058H144.12ZM144.15 36.7832H147.964C147.906 36.3184 147.71 35.9453 147.378 35.6641C147.05 35.3789 146.646 35.2363 146.165 35.2363C145.646 35.2363 145.208 35.373 144.853 35.6465C144.497 35.9199 144.263 36.2988 144.15 36.7832ZM152.088 39.1738V35.418H151.977C151.711 35.418 151.528 35.3867 151.426 35.3242C151.329 35.2617 151.28 35.1523 151.28 34.9961C151.28 34.8516 151.321 34.748 151.403 34.6855C151.485 34.6191 151.618 34.5859 151.801 34.5859H152.077H152.639C152.745 34.5859 152.827 34.6074 152.885 34.6504C152.944 34.6934 152.973 34.752 152.973 34.8262V35.2246C153.258 34.959 153.539 34.7637 153.817 34.6387C154.098 34.5098 154.389 34.4453 154.69 34.4453C155.28 34.4453 155.743 34.6289 156.079 34.9961C156.418 35.3633 156.588 35.8711 156.588 36.5195V39.1738H156.864C157.059 39.1738 157.2 39.207 157.286 39.2734C157.371 39.3359 157.414 39.4375 157.414 39.5781C157.414 39.7305 157.368 39.8398 157.274 39.9062C157.184 39.9688 157.022 40 156.787 40H155.493C155.243 40 155.082 39.9707 155.012 39.9121C154.942 39.8535 154.907 39.7422 154.907 39.5781C154.907 39.4258 154.948 39.3203 155.03 39.2617C155.112 39.2031 155.266 39.1738 155.493 39.1738H155.698V36.7363C155.698 36.2793 155.594 35.9316 155.387 35.6934C155.18 35.4512 154.879 35.3301 154.485 35.3301C154.086 35.3301 153.735 35.4648 153.43 35.7344C153.125 36.0039 152.973 36.3379 152.973 36.7363V39.1738H153.178C153.412 39.1738 153.571 39.2031 153.653 39.2617C153.735 39.3203 153.776 39.4258 153.776 39.5781C153.776 39.7422 153.741 39.8535 153.67 39.9121C153.6 39.9707 153.428 40 153.155 40H152.088H151.772C151.612 40 151.491 39.9668 151.409 39.9004C151.33 39.8301 151.291 39.7227 151.291 39.5781C151.291 39.4219 151.336 39.3164 151.426 39.2617C151.52 39.2031 151.7 39.1738 151.965 39.1738H152.088ZM162.271 35.4531C161.759 35.4531 161.341 35.6113 161.017 35.9277C160.693 36.2441 160.531 36.6543 160.531 37.1582C160.531 37.6543 160.693 38.0625 161.017 38.3828C161.341 38.6992 161.759 38.8574 162.271 38.8574C162.779 38.8574 163.195 38.6992 163.519 38.3828C163.847 38.0625 164.011 37.6543 164.011 37.1582C164.011 36.6621 163.847 36.2539 163.519 35.9336C163.195 35.6133 162.779 35.4531 162.271 35.4531ZM164.814 39.6895C164.814 40.2363 164.787 40.623 164.732 40.8496C164.677 41.0801 164.583 41.2812 164.451 41.4531C164.232 41.7422 163.925 41.9609 163.531 42.1094C163.136 42.2617 162.671 42.3379 162.136 42.3379C161.691 42.3379 161.365 42.2949 161.158 42.209C160.955 42.123 160.853 41.9863 160.853 41.7988C160.853 41.6777 160.902 41.5703 160.999 41.4766C161.101 41.3867 161.22 41.3418 161.357 41.3418C161.462 41.3418 161.624 41.3555 161.843 41.3828C162.062 41.4141 162.228 41.4297 162.341 41.4297C162.919 41.4297 163.33 41.2969 163.572 41.0312C163.814 40.7656 163.935 40.3105 163.935 39.666V38.957C163.697 39.2344 163.433 39.4375 163.144 39.5664C162.855 39.6953 162.523 39.7598 162.148 39.7598C161.417 39.7598 160.812 39.5176 160.331 39.0332C159.855 38.5449 159.617 37.9277 159.617 37.1816C159.617 36.4316 159.863 35.8105 160.355 35.3184C160.847 34.8223 161.456 34.5742 162.183 34.5742C162.484 34.5742 162.777 34.6309 163.062 34.7441C163.351 34.8535 163.642 35.0215 163.935 35.248V34.8262C163.935 34.7441 163.96 34.6836 164.011 34.6445C164.066 34.6055 164.15 34.5859 164.263 34.5859H165.148C165.304 34.5859 165.421 34.6211 165.499 34.6914C165.578 34.7578 165.617 34.8594 165.617 34.9961C165.617 35.1523 165.568 35.2617 165.47 35.3242C165.372 35.3867 165.189 35.418 164.919 35.418H164.814V39.6895ZM170.063 32.8984C170.063 32.4766 170.1 32.2109 170.174 32.1016C170.252 31.9922 170.416 31.9375 170.666 31.9375C170.909 31.9375 171.069 31.9844 171.147 32.0781C171.225 32.168 171.264 32.3848 171.264 32.7285C171.264 33.0645 171.227 33.2734 171.153 33.3555C171.082 33.4336 170.92 33.4727 170.666 33.4727C170.416 33.4727 170.252 33.4355 170.174 33.3613C170.1 33.2871 170.063 33.1328 170.063 32.8984ZM171.147 39.1738H173.028C173.18 39.1738 173.291 39.207 173.362 39.2734C173.436 39.3359 173.473 39.4375 173.473 39.5781C173.473 39.7383 173.438 39.8496 173.368 39.9121C173.301 39.9707 173.176 40 172.993 40H168.446C168.29 40 168.172 39.9648 168.094 39.8945C168.016 39.8242 167.977 39.7188 167.977 39.5781C167.977 39.4414 168.018 39.3398 168.1 39.2734C168.182 39.207 168.305 39.1738 168.469 39.1738H170.256V35.418H169.114C168.954 35.418 168.831 35.3828 168.745 35.3125C168.663 35.2383 168.622 35.1328 168.622 34.9961C168.622 34.8594 168.661 34.7578 168.739 34.6914C168.817 34.6211 168.934 34.5859 169.09 34.5859H170.807C170.913 34.5859 170.995 34.6074 171.053 34.6504C171.116 34.6934 171.147 34.752 171.147 34.8262V39.1738ZM176.589 39.1738V35.418H176.478C176.212 35.418 176.029 35.3867 175.927 35.3242C175.83 35.2617 175.781 35.1523 175.781 34.9961C175.781 34.8516 175.822 34.748 175.904 34.6855C175.986 34.6191 176.119 34.5859 176.302 34.5859H176.578H177.14C177.246 34.5859 177.328 34.6074 177.386 34.6504C177.445 34.6934 177.474 34.752 177.474 34.8262V35.2246C177.759 34.959 178.041 34.7637 178.318 34.6387C178.599 34.5098 178.89 34.4453 179.191 34.4453C179.781 34.4453 180.244 34.6289 180.58 34.9961C180.919 35.3633 181.089 35.8711 181.089 36.5195V39.1738H181.365C181.56 39.1738 181.701 39.207 181.787 39.2734C181.873 39.3359 181.916 39.4375 181.916 39.5781C181.916 39.7305 181.869 39.8398 181.775 39.9062C181.685 39.9688 181.523 40 181.289 40H179.994C179.744 40 179.584 39.9707 179.513 39.9121C179.443 39.8535 179.408 39.7422 179.408 39.5781C179.408 39.4258 179.449 39.3203 179.531 39.2617C179.613 39.2031 179.767 39.1738 179.994 39.1738H180.199V36.7363C180.199 36.2793 180.095 35.9316 179.888 35.6934C179.681 35.4512 179.38 35.3301 178.986 35.3301C178.587 35.3301 178.236 35.4648 177.931 35.7344C177.626 36.0039 177.474 36.3379 177.474 36.7363V39.1738H177.679C177.914 39.1738 178.072 39.2031 178.154 39.2617C178.236 39.3203 178.277 39.4258 178.277 39.5781C178.277 39.7422 178.242 39.8535 178.171 39.9121C178.101 39.9707 177.929 40 177.656 40H176.589H176.273C176.113 40 175.992 39.9668 175.91 39.9004C175.832 39.8301 175.793 39.7227 175.793 39.5781C175.793 39.4219 175.837 39.3164 175.927 39.2617C176.021 39.2031 176.201 39.1738 176.466 39.1738H176.589ZM184.956 37.5508C184.987 38.1133 185.176 38.5488 185.524 38.8574C185.876 39.1621 186.354 39.3145 186.96 39.3145C187.417 39.3145 187.915 39.1934 188.454 38.9512C188.993 38.7051 189.319 38.582 189.432 38.582C189.549 38.582 189.647 38.6191 189.725 38.6934C189.803 38.7676 189.842 38.8594 189.842 38.9688C189.842 39.082 189.801 39.1855 189.719 39.2793C189.637 39.373 189.506 39.4648 189.327 39.5547C188.936 39.7461 188.532 39.8926 188.114 39.9941C187.7 40.0957 187.288 40.1465 186.878 40.1465C185.987 40.1465 185.274 39.8906 184.739 39.3789C184.204 38.8633 183.936 38.1816 183.936 37.334C183.936 36.4707 184.219 35.7715 184.786 35.2363C185.352 34.7012 186.09 34.4336 187.001 34.4336C187.825 34.4336 188.508 34.6836 189.051 35.1836C189.594 35.6836 189.866 36.2891 189.866 37C189.866 37.2188 189.819 37.3652 189.725 37.4395C189.635 37.5137 189.387 37.5508 188.981 37.5508H188.893H184.956ZM184.985 36.7832H188.799C188.741 36.3184 188.545 35.9453 188.213 35.6641C187.885 35.3789 187.481 35.2363 187.001 35.2363C186.481 35.2363 186.044 35.373 185.688 35.6465C185.333 35.9199 185.098 36.2988 184.985 36.7832ZM193.123 37.5508C193.154 38.1133 193.343 38.5488 193.691 38.8574C194.043 39.1621 194.521 39.3145 195.127 39.3145C195.584 39.3145 196.082 39.1934 196.621 38.9512C197.16 38.7051 197.486 38.582 197.599 38.582C197.716 38.582 197.814 38.6191 197.892 38.6934C197.97 38.7676 198.009 38.8594 198.009 38.9688C198.009 39.082 197.968 39.1855 197.886 39.2793C197.804 39.373 197.673 39.4648 197.494 39.5547C197.103 39.7461 196.699 39.8926 196.281 39.9941C195.867 40.0957 195.455 40.1465 195.045 40.1465C194.154 40.1465 193.441 39.8906 192.906 39.3789C192.371 38.8633 192.103 38.1816 192.103 37.334C192.103 36.4707 192.386 35.7715 192.953 35.2363C193.519 34.7012 194.257 34.4336 195.168 34.4336C195.992 34.4336 196.675 34.6836 197.218 35.1836C197.761 35.6836 198.033 36.2891 198.033 37C198.033 37.2188 197.986 37.3652 197.892 37.4395C197.802 37.5137 197.554 37.5508 197.148 37.5508H197.06H193.123ZM193.152 36.7832H196.966C196.908 36.3184 196.713 35.9453 196.38 35.6641C196.052 35.3789 195.648 35.2363 195.168 35.2363C194.648 35.2363 194.211 35.373 193.855 35.6465C193.5 35.9199 193.265 36.2988 193.152 36.7832ZM202.696 39.1738H204.641C204.794 39.1738 204.905 39.207 204.975 39.2734C205.049 39.3359 205.087 39.4375 205.087 39.5781C205.087 39.7383 205.051 39.8496 204.981 39.9121C204.915 39.9707 204.79 40 204.606 40H200.774C200.622 40 200.506 39.9648 200.428 39.8945C200.35 39.8242 200.311 39.7188 200.311 39.5781C200.311 39.4414 200.35 39.3398 200.428 39.2734C200.51 39.207 200.635 39.1738 200.803 39.1738H201.823V35.418H201.424C201.046 35.418 200.809 35.3887 200.715 35.3301C200.622 35.2676 200.575 35.1562 200.575 34.9961C200.575 34.8594 200.612 34.7578 200.686 34.6914C200.764 34.6211 200.881 34.5859 201.038 34.5859H202.374C202.479 34.5859 202.559 34.6074 202.614 34.6504C202.669 34.6895 202.696 34.748 202.696 34.8262V35.8223C203.067 35.3574 203.454 35.0117 203.856 34.7852C204.258 34.5586 204.692 34.4453 205.157 34.4453C205.505 34.4453 205.786 34.5156 206.001 34.6562C206.215 34.7969 206.323 34.9785 206.323 35.2012C206.323 35.3457 206.268 35.4746 206.159 35.5879C206.053 35.6973 205.936 35.752 205.807 35.752C205.717 35.752 205.565 35.6934 205.35 35.5762C205.139 35.4551 204.95 35.3945 204.782 35.3945C204.477 35.3945 204.155 35.5039 203.815 35.7227C203.479 35.9375 203.106 36.2793 202.696 36.748V39.1738Z" fill="white"/>
</g>
<g filter="url(#filter2_d)">
<path d="M21.0908 18.1924H16.4766C15.6221 18.1924 15.0695 18.1069 14.8188 17.936C14.5682 17.7537 14.4429 17.429 14.4429 16.9619C14.4429 16.5404 14.5397 16.2327 14.7334 16.0391C14.9385 15.834 15.2632 15.7314 15.7075 15.7314H16.4766H25.9956H26.7988C27.209 15.7314 27.5109 15.834 27.7046 16.0391C27.9097 16.2441 28.0122 16.5518 28.0122 16.9619C28.0122 17.429 27.8869 17.7537 27.6362 17.936C27.3856 18.1069 26.8387 18.1924 25.9956 18.1924H23.791V29.1128C23.791 31.7218 23.2384 33.6074 22.1333 34.7695C21.0282 35.9202 19.2451 36.4956 16.7842 36.4956C15.7132 36.4956 14.6935 36.3703 13.7251 36.1196C12.7567 35.8804 11.7939 35.5044 10.8369 34.9917C10.4382 34.7752 10.1761 34.5645 10.0508 34.3594C9.92546 34.1429 9.86279 33.7555 9.86279 33.1973V29.1812C9.86279 28.3836 9.94255 27.888 10.1021 27.6943C10.2729 27.4893 10.5635 27.3867 10.9736 27.3867C11.2471 27.3867 11.4806 27.4437 11.6743 27.5576C11.868 27.6602 12.0104 27.814 12.1016 28.019C12.1471 28.133 12.1813 28.2697 12.2041 28.4292C12.2269 28.5887 12.2383 28.8735 12.2383 29.2837V29.4546C12.2383 29.8306 12.2554 30.1781 12.2896 30.4971C12.3237 30.8047 12.375 31.1123 12.4434 31.4199C12.694 32.32 13.1896 33.0321 13.9302 33.5562C14.6707 34.0688 15.5651 34.3252 16.6133 34.3252C18.1855 34.3252 19.3249 33.8866 20.0312 33.0093C20.7376 32.1206 21.0908 30.6794 21.0908 28.6855V18.1924ZM43.2734 33.5903C44.1507 33.5903 44.709 33.6758 44.9482 33.8467C45.1989 34.0062 45.3242 34.3138 45.3242 34.7695C45.3242 35.2367 45.1989 35.5614 44.9482 35.7437C44.709 35.9146 44.2191 36 43.4785 36H35.3608C34.6203 36 34.1304 35.9146 33.8911 35.7437C33.6519 35.5614 33.5322 35.2367 33.5322 34.7695C33.5322 34.3138 33.6632 34.0062 33.9253 33.8467C34.1987 33.6758 34.757 33.5903 35.6001 33.5903H38.0781V27.9165L32.3872 18.1924H32.0967C31.4131 18.1924 30.946 18.1012 30.6953 17.9189C30.4447 17.7367 30.3193 17.4176 30.3193 16.9619C30.3193 16.5404 30.4219 16.2327 30.627 16.0391C30.8434 15.834 31.1738 15.7314 31.6182 15.7314H32.3872H36.3008C36.973 15.7314 37.423 15.8226 37.6509 16.0049C37.8901 16.1872 38.0098 16.5062 38.0098 16.9619C38.0098 17.4176 37.8674 17.7367 37.5825 17.9189C37.3091 18.1012 36.8021 18.1924 36.0615 18.1924H35.4976L39.6333 25.6094L43.9229 18.1924H43.2222C42.6069 18.1924 42.1797 18.1012 41.9404 17.9189C41.7012 17.7367 41.5815 17.4176 41.5815 16.9619C41.5815 16.4834 41.6841 16.1587 41.8892 15.9878C42.0942 15.8169 42.6126 15.7314 43.4443 15.7314H43.8887H46.5889C47.4548 15.7314 48.0073 15.8226 48.2466 16.0049C48.4972 16.1758 48.6226 16.4948 48.6226 16.9619C48.6226 17.4176 48.4972 17.7367 48.2466 17.9189C48.0073 18.1012 47.5459 18.1924 46.8623 18.1924H46.5889L40.7783 28.1558V33.5903H43.2734Z" fill="white"/>
</g>
<g filter="url(#filter3_d)">
<circle cx="29" cy="25" r="24" stroke="white" stroke-width="2"/>
</g>
<defs>
<filter id="filter0_d" x="65.8516" y="11.7734" width="144.251" height="21.3594" filterUnits="userSpaceOnUse" color-interpolation-filters="sRGB">
<feFlood flood-opacity="0" result="BackgroundImageFix"/>
<feColorMatrix in="SourceAlpha" type="matrix" values="0 0 0 0 0 0 0 0 0 0 0 0 0 0 0 0 0 0 127 0" result="hardAlpha"/>
<feOffset dy="4"/>
<feGaussianBlur stdDeviation="2"/>
<feColorMatrix type="matrix" values="0 0 0 0 0 0 0 0 0 0 0 0 0 0 0 0 0 0 0.25 0"/>
<feBlend mode="normal" in2="BackgroundImageFix" result="effect1_dropShadow"/>
<feBlend mode="normal" in="SourceGraphic" in2="effect1_dropShadow" result="shape"/>
</filter>
<filter id="filter1_d" x="65.0117" y="31.9375" width="145.311" height="18.4004" filterUnits="userSpaceOnUse" color-interpolation-filters="sRGB">
<feFlood flood-opacity="0" result="BackgroundImageFix"/>
<feColorMatrix in="SourceAlpha" type="matrix" values="0 0 0 0 0 0 0 0 0 0 0 0 0 0 0 0 0 0 127 0" result="hardAlpha"/>
<feOffset dy="4"/>
<feGaussianBlur stdDeviation="2"/>
<feColorMatrix type="matrix" values="0 0 0 0 0 0 0 0 0 0 0 0 0 0 0 0 0 0 0.25 0"/>
<feBlend mode="normal" in2="BackgroundImageFix" result="effect1_dropShadow"/>
<feBlend mode="normal" in="SourceGraphic" in2="effect1_dropShadow" result="shape"/>
</filter>
<filter id="filter2_d" x="5.86279" y="15.7314" width="46.7598" height="28.7642" filterUnits="userSpaceOnUse" color-interpolation-filters="sRGB">
<feFlood flood-opacity="0" result="BackgroundImageFix"/>
<feColorMatrix in="SourceAlpha" type="matrix" values="0 0 0 0 0 0 0 0 0 0 0 0 0 0 0 0 0 0 127 0" result="hardAlpha"/>
<feOffset dy="4"/>
<feGaussianBlur stdDeviation="2"/>
<feColorMatrix type="matrix" values="0 0 0 0 0 0 0 0 0 0 0 0 0 0 0 0 0 0 0.25 0"/>
<feBlend mode="normal" in2="BackgroundImageFix" result="effect1_dropShadow"/>
<feBlend mode="normal" in="SourceGraphic" in2="effect1_dropShadow" result="shape"/>
</filter>
<filter id="filter3_d" x="0" y="0" width="58" height="58" filterUnits="userSpaceOnUse" color-interpolation-filters="sRGB">
<feFlood flood-opacity="0" result="BackgroundImageFix"/>
<feColorMatrix in="SourceAlpha" type="matrix" values="0 0 0 0 0 0 0 0 0 0 0 0 0 0 0 0 0 0 127 0" result="hardAlpha"/>
<feOffset dy="4"/>
<feGaussianBlur stdDeviation="2"/>
<feColorMatrix type="matrix" values="0 0 0 0 0 0 0 0 0 0 0 0 0 0 0 0 0 0 0.25 0"/>
<feBlend mode="normal" in2="BackgroundImageFix" result="effect1_dropShadow"/>
<feBlend mode="normal" in="SourceGraphic" in2="effect1_dropShadow" result="shape"/>
</filter>
</defs>
</svg>
